<mxfile host="app.diagrams.net" modified="2024-06-13T08:25:26.747Z" agent="Mozilla/5.0 (Macintosh; Intel Mac OS X 10_15_7) AppleWebKit/537.36 (KHTML, like Gecko) Chrome/125.0.0.0 Safari/537.36" etag="w1PpSdfWZvLWPiHQdubt" version="24.5.2" type="github">
  <diagram id="R2lEEEUBdFMjLlhIrx00" name="Page-1">
    <mxGraphModel dx="1134" dy="523" grid="1" gridSize="10" guides="1" tooltips="1" connect="1" arrows="1" fold="1" page="1" pageScale="1" pageWidth="850" pageHeight="1100" math="0" shadow="0" extFonts="Permanent Marker^https://fonts.googleapis.com/css?family=Permanent+Marker">
      <root>
        <mxCell id="0" />
        <mxCell id="1" parent="0" />
        <mxCell id="y0n2fc8zz_9W35fDwO32-1" value="Customer" style="whiteSpace=wrap;html=1;align=center;" vertex="1" parent="1">
          <mxGeometry x="80" y="160" width="100" height="40" as="geometry" />
        </mxCell>
        <mxCell id="y0n2fc8zz_9W35fDwO32-16" value="" style="edgeStyle=orthogonalEdgeStyle;rounded=0;orthogonalLoop=1;jettySize=auto;html=1;" edge="1" parent="1" source="y0n2fc8zz_9W35fDwO32-2" target="y0n2fc8zz_9W35fDwO32-1">
          <mxGeometry relative="1" as="geometry" />
        </mxCell>
        <mxCell id="y0n2fc8zz_9W35fDwO32-2" value="Places" style="shape=rhombus;perimeter=rhombusPerimeter;whiteSpace=wrap;html=1;align=center;" vertex="1" parent="1">
          <mxGeometry x="230" y="150" width="70" height="60" as="geometry" />
        </mxCell>
        <mxCell id="y0n2fc8zz_9W35fDwO32-3" value="Order" style="whiteSpace=wrap;html=1;align=center;" vertex="1" parent="1">
          <mxGeometry x="340" y="160" width="100" height="40" as="geometry" />
        </mxCell>
        <mxCell id="y0n2fc8zz_9W35fDwO32-4" value="" style="shape=link;html=1;rounded=0;" edge="1" parent="1">
          <mxGeometry relative="1" as="geometry">
            <mxPoint x="300" y="180" as="sourcePoint" />
            <mxPoint x="340" y="179.5" as="targetPoint" />
          </mxGeometry>
        </mxCell>
        <mxCell id="y0n2fc8zz_9W35fDwO32-5" value="N" style="resizable=0;html=1;whiteSpace=wrap;align=right;verticalAlign=bottom;" connectable="0" vertex="1" parent="y0n2fc8zz_9W35fDwO32-4">
          <mxGeometry x="1" relative="1" as="geometry" />
        </mxCell>
        <mxCell id="y0n2fc8zz_9W35fDwO32-6" value="" style="shape=link;html=1;rounded=0;" edge="1" parent="1">
          <mxGeometry relative="1" as="geometry">
            <mxPoint x="440" y="179.5" as="sourcePoint" />
            <mxPoint x="490" y="180" as="targetPoint" />
          </mxGeometry>
        </mxCell>
        <mxCell id="y0n2fc8zz_9W35fDwO32-7" value="1" style="resizable=0;html=1;whiteSpace=wrap;align=right;verticalAlign=bottom;" connectable="0" vertex="1" parent="y0n2fc8zz_9W35fDwO32-6">
          <mxGeometry x="1" relative="1" as="geometry" />
        </mxCell>
        <mxCell id="y0n2fc8zz_9W35fDwO32-11" value="contains" style="shape=rhombus;perimeter=rhombusPerimeter;whiteSpace=wrap;html=1;align=center;" vertex="1" parent="1">
          <mxGeometry x="490" y="150" width="70" height="60" as="geometry" />
        </mxCell>
        <mxCell id="y0n2fc8zz_9W35fDwO32-12" value="OrderItem" style="whiteSpace=wrap;html=1;align=center;" vertex="1" parent="1">
          <mxGeometry x="610" y="160" width="100" height="40" as="geometry" />
        </mxCell>
        <mxCell id="y0n2fc8zz_9W35fDwO32-13" value="" style="shape=link;html=1;rounded=0;" edge="1" parent="1">
          <mxGeometry relative="1" as="geometry">
            <mxPoint x="560" y="179.5" as="sourcePoint" />
            <mxPoint x="610" y="180" as="targetPoint" />
          </mxGeometry>
        </mxCell>
        <mxCell id="y0n2fc8zz_9W35fDwO32-14" value="N" style="resizable=0;html=1;whiteSpace=wrap;align=right;verticalAlign=bottom;" connectable="0" vertex="1" parent="y0n2fc8zz_9W35fDwO32-13">
          <mxGeometry x="1" relative="1" as="geometry" />
        </mxCell>
        <mxCell id="y0n2fc8zz_9W35fDwO32-18" value="Review" style="whiteSpace=wrap;html=1;align=center;" vertex="1" parent="1">
          <mxGeometry x="80" y="350" width="100" height="40" as="geometry" />
        </mxCell>
        <mxCell id="y0n2fc8zz_9W35fDwO32-19" value="Writes" style="shape=rhombus;perimeter=rhombusPerimeter;whiteSpace=wrap;html=1;align=center;" vertex="1" parent="1">
          <mxGeometry x="95" y="250" width="70" height="60" as="geometry" />
        </mxCell>
        <mxCell id="y0n2fc8zz_9W35fDwO32-20" value="" style="shape=link;html=1;rounded=0;exitX=0.5;exitY=1;exitDx=0;exitDy=0;entryX=0.5;entryY=0;entryDx=0;entryDy=0;" edge="1" parent="1" source="y0n2fc8zz_9W35fDwO32-1" target="y0n2fc8zz_9W35fDwO32-19">
          <mxGeometry relative="1" as="geometry">
            <mxPoint x="110" y="190" as="sourcePoint" />
            <mxPoint x="130" y="200" as="targetPoint" />
          </mxGeometry>
        </mxCell>
        <mxCell id="y0n2fc8zz_9W35fDwO32-21" value="1" style="resizable=0;html=1;whiteSpace=wrap;align=right;verticalAlign=bottom;" connectable="0" vertex="1" parent="y0n2fc8zz_9W35fDwO32-20">
          <mxGeometry x="1" relative="1" as="geometry" />
        </mxCell>
        <mxCell id="y0n2fc8zz_9W35fDwO32-22" value="" style="shape=link;html=1;rounded=0;" edge="1" parent="1">
          <mxGeometry relative="1" as="geometry">
            <mxPoint x="130" y="310" as="sourcePoint" />
            <mxPoint x="129.5" y="350" as="targetPoint" />
          </mxGeometry>
        </mxCell>
        <mxCell id="y0n2fc8zz_9W35fDwO32-23" value="N" style="resizable=0;html=1;whiteSpace=wrap;align=right;verticalAlign=bottom;" connectable="0" vertex="1" parent="y0n2fc8zz_9W35fDwO32-22">
          <mxGeometry x="1" relative="1" as="geometry" />
        </mxCell>
        <mxCell id="y0n2fc8zz_9W35fDwO32-24" value="Resturant" style="whiteSpace=wrap;html=1;align=center;" vertex="1" parent="1">
          <mxGeometry x="340" y="350" width="100" height="40" as="geometry" />
        </mxCell>
        <mxCell id="y0n2fc8zz_9W35fDwO32-25" value="Offers" style="shape=rhombus;perimeter=rhombusPerimeter;whiteSpace=wrap;html=1;align=center;" vertex="1" parent="1">
          <mxGeometry x="490" y="340" width="70" height="60" as="geometry" />
        </mxCell>
        <mxCell id="y0n2fc8zz_9W35fDwO32-26" value="Menu" style="whiteSpace=wrap;html=1;align=center;" vertex="1" parent="1">
          <mxGeometry x="610" y="350" width="100" height="40" as="geometry" />
        </mxCell>
        <mxCell id="y0n2fc8zz_9W35fDwO32-27" value="" style="shape=link;html=1;rounded=0;" edge="1" parent="1">
          <mxGeometry relative="1" as="geometry">
            <mxPoint x="440" y="369.5" as="sourcePoint" />
            <mxPoint x="490" y="369.5" as="targetPoint" />
          </mxGeometry>
        </mxCell>
        <mxCell id="y0n2fc8zz_9W35fDwO32-28" value="M" style="resizable=0;html=1;whiteSpace=wrap;align=left;verticalAlign=bottom;" connectable="0" vertex="1" parent="y0n2fc8zz_9W35fDwO32-27">
          <mxGeometry x="-1" relative="1" as="geometry" />
        </mxCell>
        <mxCell id="y0n2fc8zz_9W35fDwO32-29" value="N" style="resizable=0;html=1;whiteSpace=wrap;align=right;verticalAlign=bottom;" connectable="0" vertex="1" parent="y0n2fc8zz_9W35fDwO32-27">
          <mxGeometry x="1" relative="1" as="geometry" />
        </mxCell>
        <mxCell id="y0n2fc8zz_9W35fDwO32-30" value="" style="shape=link;html=1;rounded=0;" edge="1" parent="1">
          <mxGeometry relative="1" as="geometry">
            <mxPoint x="560" y="369.5" as="sourcePoint" />
            <mxPoint x="610" y="369.5" as="targetPoint" />
          </mxGeometry>
        </mxCell>
        <mxCell id="y0n2fc8zz_9W35fDwO32-31" value="M" style="resizable=0;html=1;whiteSpace=wrap;align=left;verticalAlign=bottom;" connectable="0" vertex="1" parent="y0n2fc8zz_9W35fDwO32-30">
          <mxGeometry x="-1" relative="1" as="geometry" />
        </mxCell>
        <mxCell id="y0n2fc8zz_9W35fDwO32-32" value="N" style="resizable=0;html=1;whiteSpace=wrap;align=right;verticalAlign=bottom;" connectable="0" vertex="1" parent="y0n2fc8zz_9W35fDwO32-30">
          <mxGeometry x="1" relative="1" as="geometry" />
        </mxCell>
        <mxCell id="y0n2fc8zz_9W35fDwO32-36" value="" style="endArrow=classic;html=1;rounded=0;exitX=0.5;exitY=0;exitDx=0;exitDy=0;entryX=0.5;entryY=1;entryDx=0;entryDy=0;" edge="1" parent="1" source="y0n2fc8zz_9W35fDwO32-33" target="y0n2fc8zz_9W35fDwO32-12">
          <mxGeometry width="50" height="50" relative="1" as="geometry">
            <mxPoint x="659.5" y="200" as="sourcePoint" />
            <mxPoint x="660" y="220" as="targetPoint" />
          </mxGeometry>
        </mxCell>
        <mxCell id="y0n2fc8zz_9W35fDwO32-42" value="get" style="shape=rhombus;perimeter=rhombusPerimeter;whiteSpace=wrap;html=1;align=center;" vertex="1" parent="1">
          <mxGeometry x="220" y="340" width="70" height="60" as="geometry" />
        </mxCell>
        <mxCell id="y0n2fc8zz_9W35fDwO32-55" value="payment" style="whiteSpace=wrap;html=1;align=center;" vertex="1" parent="1">
          <mxGeometry x="340" y="20" width="100" height="40" as="geometry" />
        </mxCell>
        <mxCell id="y0n2fc8zz_9W35fDwO32-57" value="" style="shape=link;html=1;rounded=0;" edge="1" parent="1" target="y0n2fc8zz_9W35fDwO32-33">
          <mxGeometry relative="1" as="geometry">
            <mxPoint x="659.5" y="270" as="sourcePoint" />
            <mxPoint x="659.5" y="320" as="targetPoint" />
          </mxGeometry>
        </mxCell>
        <mxCell id="y0n2fc8zz_9W35fDwO32-33" value="PartsOf" style="shape=rhombus;perimeter=rhombusPerimeter;whiteSpace=wrap;html=1;align=center;" vertex="1" parent="1">
          <mxGeometry x="625" y="240" width="70" height="60" as="geometry" />
        </mxCell>
        <mxCell id="y0n2fc8zz_9W35fDwO32-59" value="PaidBy" style="shape=rhombus;perimeter=rhombusPerimeter;whiteSpace=wrap;html=1;align=center;" vertex="1" parent="1">
          <mxGeometry x="345" y="90" width="90" height="40" as="geometry" />
        </mxCell>
        <mxCell id="y0n2fc8zz_9W35fDwO32-62" value="" style="endArrow=classic;html=1;rounded=0;" edge="1" parent="1">
          <mxGeometry relative="1" as="geometry">
            <mxPoint x="390" y="90" as="sourcePoint" />
            <mxPoint x="389.5" y="60" as="targetPoint" />
          </mxGeometry>
        </mxCell>
        <mxCell id="y0n2fc8zz_9W35fDwO32-64" value="" style="endArrow=classic;html=1;rounded=0;" edge="1" parent="1">
          <mxGeometry width="50" height="50" relative="1" as="geometry">
            <mxPoint x="389.5" y="130" as="sourcePoint" />
            <mxPoint x="390" y="160" as="targetPoint" />
          </mxGeometry>
        </mxCell>
        <mxCell id="y0n2fc8zz_9W35fDwO32-73" value="" style="shape=link;html=1;rounded=0;" edge="1" parent="1">
          <mxGeometry relative="1" as="geometry">
            <mxPoint x="180" y="369.5" as="sourcePoint" />
            <mxPoint x="220" y="369.5" as="targetPoint" />
          </mxGeometry>
        </mxCell>
        <mxCell id="y0n2fc8zz_9W35fDwO32-74" value="M" style="resizable=0;html=1;whiteSpace=wrap;align=left;verticalAlign=bottom;" connectable="0" vertex="1" parent="y0n2fc8zz_9W35fDwO32-73">
          <mxGeometry x="-1" relative="1" as="geometry" />
        </mxCell>
        <mxCell id="y0n2fc8zz_9W35fDwO32-75" value="N" style="resizable=0;html=1;whiteSpace=wrap;align=right;verticalAlign=bottom;" connectable="0" vertex="1" parent="y0n2fc8zz_9W35fDwO32-73">
          <mxGeometry x="1" relative="1" as="geometry" />
        </mxCell>
        <mxCell id="y0n2fc8zz_9W35fDwO32-76" value="" style="shape=link;html=1;rounded=0;" edge="1" parent="1">
          <mxGeometry relative="1" as="geometry">
            <mxPoint x="290" y="369.5" as="sourcePoint" />
            <mxPoint x="340" y="370" as="targetPoint" />
          </mxGeometry>
        </mxCell>
        <mxCell id="y0n2fc8zz_9W35fDwO32-77" value="M" style="resizable=0;html=1;whiteSpace=wrap;align=left;verticalAlign=bottom;" connectable="0" vertex="1" parent="y0n2fc8zz_9W35fDwO32-76">
          <mxGeometry x="-1" relative="1" as="geometry" />
        </mxCell>
        <mxCell id="y0n2fc8zz_9W35fDwO32-78" value="N" style="resizable=0;html=1;whiteSpace=wrap;align=right;verticalAlign=bottom;" connectable="0" vertex="1" parent="y0n2fc8zz_9W35fDwO32-76">
          <mxGeometry x="1" relative="1" as="geometry" />
        </mxCell>
        <mxCell id="y0n2fc8zz_9W35fDwO32-79" value="" style="shape=link;html=1;rounded=0;" edge="1" parent="1">
          <mxGeometry relative="1" as="geometry">
            <mxPoint x="659.5" y="300" as="sourcePoint" />
            <mxPoint x="659.5" y="350" as="targetPoint" />
          </mxGeometry>
        </mxCell>
        <mxCell id="y0n2fc8zz_9W35fDwO32-80" value="N" style="resizable=0;html=1;whiteSpace=wrap;align=right;verticalAlign=bottom;" connectable="0" vertex="1" parent="y0n2fc8zz_9W35fDwO32-79">
          <mxGeometry x="1" relative="1" as="geometry" />
        </mxCell>
        <mxCell id="y0n2fc8zz_9W35fDwO32-81" value="DriveFor" style="shape=rhombus;perimeter=rhombusPerimeter;whiteSpace=wrap;html=1;align=center;" vertex="1" parent="1">
          <mxGeometry x="80" y="90" width="100" height="40" as="geometry" />
        </mxCell>
        <mxCell id="y0n2fc8zz_9W35fDwO32-82" value="Driver" style="whiteSpace=wrap;html=1;align=center;" vertex="1" parent="1">
          <mxGeometry x="80" y="20" width="100" height="40" as="geometry" />
        </mxCell>
        <mxCell id="y0n2fc8zz_9W35fDwO32-85" value="" style="endArrow=classic;html=1;rounded=0;" edge="1" parent="1">
          <mxGeometry width="50" height="50" relative="1" as="geometry">
            <mxPoint x="130" y="90" as="sourcePoint" />
            <mxPoint x="129.5" y="60" as="targetPoint" />
          </mxGeometry>
        </mxCell>
        <mxCell id="y0n2fc8zz_9W35fDwO32-87" value="" style="endArrow=classic;html=1;rounded=0;" edge="1" parent="1">
          <mxGeometry width="50" height="50" relative="1" as="geometry">
            <mxPoint x="129.5" y="130" as="sourcePoint" />
            <mxPoint x="130" y="160" as="targetPoint" />
          </mxGeometry>
        </mxCell>
      </root>
    </mxGraphModel>
  </diagram>
</mxfile>
